
#
# '/mnt/sdcard/Download/cds-data/video/video_08_3gp (1min).3gp'
#
General
Count                                    : 284
Count of stream of this kind             : 1
Kind of stream                           : General
Kind of stream                           : General
Stream identifier                        : 0
Count of video streams                   : 1
Count of audio streams                   : 1
Video_Format_List                        : H.263
Video_Format_WithHint_List               : H.263
Codecs Video                             : H.263
Audio_Format_List                        : AMR
Audio_Format_WithHint_List               : AMR
Audio codecs                             : AMR-NB
Complete name                            : /mnt/sdcard/Download/cds-data/video/video_08_3gp (1min).3gp
Folder name                              : /mnt/sdcard/Download/cds-data/video
File name                                : video_08_3gp (1min)
File extension                           : 3gp
Format                                   : MPEG-4
Format                                   : MPEG-4
Format/Extensions usually used           : mp4 m4v m4a m4b m4p 3gpp 3gp 3gpp2 3g2 k3g jpm jpx mqv ismv isma f4v
Commercial name                          : MPEG-4
Format profile                           : 3GPP Media Release 4
Internet media type                      : video/mp4
Codec ID                                 : 3gp4
Codec ID/Url                             : http://www.3gpp.org/
Codec                                    : MPEG-4
Codec                                    : MPEG-4
Codec/Extensions usually used            : mp4 m4v m4a m4b m4p 3gpp 3gp 3gpp2 3g2 k3g jpm jpx mqv ismv isma f4v
File size                                : 5746943
File size                                : 5.48 MiB
File size                                : 5 MiB
File size                                : 5.5 MiB
File size                                : 5.48 MiB
File size                                : 5.481 MiB
Duration                                 : 59960
Duration                                 : 59s 960ms
Duration                                 : 59s 960ms
Duration                                 : 59s 960ms
Duration                                 : 00:00:59.960
Overall bit rate                         : 766770
Overall bit rate                         : 767 Kbps
Stream size                              : 25532
Stream size                              : 24.9 KiB (0%)
Stream size                              : 25 KiB
Stream size                              : 25 KiB
Stream size                              : 24.9 KiB
Stream size                              : 24.93 KiB
Stream size                              : 24.9 KiB (0%)
Proportion of this stream                : 0.00444
HeaderSize                               : 36
DataSize                                 : 5721419
FooterSize                               : 25488
IsStreamable                             : No
Encoded date                             : UTC 1970-01-01 00:00:00
Tagged date                              : UTC 1970-01-01 00:00:00
File last modification date              : UTC 2014-11-26 06:30:31
File last modification date (local)      : 2014-11-26 15:30:31

Video
Count                                    : 274
Count of stream of this kind             : 1
Kind of stream                           : Video
Kind of stream                           : Video
Stream identifier                        : 0
StreamOrder                              : 0
ID                                       : 1
ID                                       : 1
Format                                   : H.263
Commercial name                          : H.263
Format profile                           : BaseLine@1.0
Internet media type                      : video/H263
Codec ID                                 : s263
Codec ID/Url                             : http://www.apple.com/quicktime/download/standalone.html
Codec                                    : H.263
Codec                                    : H.263
Codec/Info                               : H.263 (3GPP)
Codec/Url                                : http://www.apple.com/quicktime/download/standalone.html
Codec/CC                                 : s263
Duration                                 : 59960
Duration                                 : 59s 960ms
Duration                                 : 59s 960ms
Duration                                 : 59s 960ms
Duration                                 : 00:00:59.960
Bit rate                                 : 750568
Bit rate                                 : 751 Kbps
Width                                    : 704
Width                                    : 704 pixels
Height                                   : 576
Height                                   : 576 pixels
Pixel aspect ratio                       : 1.455
Original pixel aspect ratio              : 1.091
Display aspect ratio                     : 1.778
Display aspect ratio                     : 16:9
Original display aspect ratio            : 1.333
Original display aspect ratio            : 4:3
Rotation                                 : 0.000
Frame rate mode                          : CFR
Frame rate mode                          : Constant
Frame rate                               : 25.000
Frame rate                               : 25.000 fps
Frame count                              : 1499
Standard                                 : PAL
Resolution                               : 8
Resolution                               : 8 bits
Colorimetry                              : 4:2:0
Color space                              : YUV
Chroma subsampling                       : 4:2:0
Bit depth                                : 8
Bit depth                                : 8 bits
Compression mode                         : Lossy
Compression mode                         : Lossy
Bits/(Pixel*Frame)                       : 0.074
Stream size                              : 5625507
Stream size                              : 5.36 MiB (98%)
Stream size                              : 5 MiB
Stream size                              : 5.4 MiB
Stream size                              : 5.36 MiB
Stream size                              : 5.365 MiB
Stream size                              : 5.36 MiB (98%)
Proportion of this stream                : 0.97887
Writing library                          : FFMpeg 0
Writing library                          : FFMpeg
Writing library/Name                     : FFMpeg
Writing library/Version                  : 0
Encoded date                             : UTC 1970-01-01 00:00:00
Tagged date                              : UTC 1970-01-01 00:00:00

Audio
Count                                    : 222
Count of stream of this kind             : 1
Kind of stream                           : Audio
Kind of stream                           : Audio
Stream identifier                        : 0
StreamOrder                              : 1
ID                                       : 2
ID                                       : 2
Format                                   : AMR
Format/Info                              : Adaptive Multi-Rate
Format/Url                               : http://www.apple.com/quicktime/download/standalone.html
Commercial name                          : AMR
Format profile                           : Narrow band
Internet media type                      : audio/AMR
Codec ID                                 : samr
Codec ID/Url                             : http://www.apple.com/quicktime/download/standalone.html
Codec                                    : samr
Codec                                    : AMR-NB
Codec/Info                               : AMR narrow band (3GPP)
Codec/Url                                : http://www.apple.com/quicktime/download/standalone.html
Codec/CC                                 : samr
Duration                                 : 59940
Duration                                 : 59s 940ms
Duration                                 : 59s 940ms
Duration                                 : 59s 940ms
Duration                                 : 00:00:59.940
Bit rate mode                            : CBR
Bit rate mode                            : Constant
Bit rate                                 : 12800
Bit rate                                 : 12.8 Kbps
Channel(s)                               : 1
Channel(s)                               : 1 channel
Sampling rate                            : 8000
Sampling rate                            : 8 000 Hz
Samples count                            : 479520
Frame count                              : 2997
Resolution                               : 13
Resolution                               : 13 bits
Bit depth                                : 13
Bit depth                                : 13 bits
Stream size                              : 95904
Stream size                              : 93.7 KiB (2%)
Stream size                              : 94 KiB
Stream size                              : 94 KiB
Stream size                              : 93.7 KiB
Stream size                              : 93.66 KiB
Stream size                              : 93.7 KiB (2%)
Proportion of this stream                : 0.01669
Writing library                          : FFMpeg 0
Writing library                          : FFMpeg
Writing library/Name                     : FFMpeg
Writing library/Version                  : 0
Encoded date                             : UTC 1970-01-01 00:00:00
Tagged date                              : UTC 1970-01-01 00:00:00

